<svg width="416" height="46" viewBox="0 0 416 46" fill="none" xmlns="http://www.w3.org/2000/svg">
<g id="flymenu-reactjs">
<path d="M11.9795 10.1465C14.4372 10.1465 16.3333 10.3825 17.668 10.8545C19.0026 11.3102 19.6699 12.0833 19.6699 13.1738C19.6699 14.3294 19.2061 15.5013 18.2783 16.6895C14.7627 15.1432 12.069 14.3701 10.1973 14.3701C9.20443 14.3701 8.46387 14.5573 7.97559 14.9316C7.50358 15.306 7.26758 15.8431 7.26758 16.543C7.26758 17.2754 7.58496 17.9102 8.21973 18.4473C8.87077 18.9844 10.36 19.668 12.6875 20.498C15.4056 21.4258 17.3343 22.443 18.4736 23.5498C19.6292 24.6566 20.207 26.1133 20.207 27.9199C20.207 30.3613 19.2061 32.2331 17.2041 33.5352C15.2184 34.8372 12.5247 35.4883 9.12305 35.4883C5.98177 35.4883 3.74382 35.2767 2.40918 34.8535C1.07454 34.4141 0.399089 33.5189 0.382812 32.168C0.382812 31.1589 0.781576 30.166 1.5791 29.1895C4.81803 30.5729 7.69076 31.2646 10.1973 31.2646C11.2227 31.2646 12.0202 31.0938 12.5898 30.752C13.1595 30.4102 13.4443 29.8405 13.4443 29.043C13.4443 28.1152 12.9398 27.3747 11.9307 26.8213C10.9378 26.2679 9.33464 25.568 7.12109 24.7217C4.74479 23.8102 3.04395 22.8337 2.01855 21.792C1.00944 20.734 0.504883 19.3831 0.504883 17.7393C0.504883 15.4281 1.514 13.5889 3.53223 12.2217C5.56673 10.8382 8.38249 10.1465 11.9795 10.1465ZM27.0674 23.2324C27.0674 15.8431 27.0348 11.2044 26.9697 9.31641C26.9046 7.42839 26.7826 6.14258 26.6035 5.45898C26.4245 4.75911 26.1071 4.31152 25.6514 4.11621C25.2119 3.90462 24.6341 3.79883 23.918 3.79883C23.625 3.13151 23.4785 2.46419 23.4785 1.79688C23.4785 1.11328 23.7308 0.681966 24.2354 0.50293C24.7562 0.307617 26.4001 0.209961 29.167 0.209961C30.8923 0.209961 32.0723 0.283203 32.707 0.429688C33.3418 0.559896 33.6999 0.812174 33.7812 1.18652C33.8789 1.56087 33.9277 2.08984 33.9277 2.77344V21.5479C33.9277 26.2028 33.9684 29.5719 34.0498 31.6553H37.1748C37.4515 32.1924 37.5898 32.7946 37.5898 33.4619C37.5898 34.0316 37.4678 34.4303 37.2236 34.6582C36.9958 34.8861 36.54 35 35.8564 35H23.918C23.625 34.3164 23.4785 33.6735 23.4785 33.0713C23.4785 32.5667 23.5924 32.2087 23.8203 31.9971C24.0482 31.7692 24.4144 31.6553 24.9189 31.6553H26.9209C27.0186 29.5719 27.0674 26.7643 27.0674 23.2324ZM45.6709 7.24121C44.2061 7.24121 43.1481 6.96452 42.4971 6.41113C41.846 5.84147 41.5205 5.04395 41.5205 4.01855C41.5205 2.94434 41.9355 2.06543 42.7656 1.38184C43.5957 0.681966 44.7757 0.332031 46.3057 0.332031C47.8682 0.332031 48.9749 0.633138 49.626 1.23535C50.277 1.82129 50.6025 2.5944 50.6025 3.55469C50.6025 4.61263 50.2119 5.49154 49.4307 6.19141C48.6494 6.89128 47.3962 7.24121 45.6709 7.24121ZM53.0195 31.6553C53.2962 32.1924 53.4346 32.7946 53.4346 33.4619C53.4346 34.0316 53.3125 34.4303 53.0684 34.6582C52.8405 34.8861 52.3848 35 51.7012 35H39.9824C39.7057 34.3164 39.5674 33.6735 39.5674 33.0713C39.5674 32.5667 39.6813 32.2087 39.9092 31.9971C40.137 31.7692 40.5033 31.6553 41.0078 31.6553H43.0098C43.0911 29.5719 43.1318 27.3503 43.1318 24.9902C43.1318 21.3932 43.0993 19.0088 43.0342 17.8369C42.9854 16.6488 42.8633 15.7861 42.668 15.249C42.4727 14.6956 42.1715 14.3538 41.7646 14.2236C41.3577 14.0771 40.7637 14.0039 39.9824 14.0039C39.7057 13.5482 39.5674 13.0192 39.5674 12.417C39.5674 11.5055 39.9417 10.944 40.6904 10.7324C41.4391 10.5208 42.9609 10.415 45.2559 10.415C46.9811 10.415 48.153 10.4801 48.7715 10.6104C49.4062 10.7406 49.7643 11.001 49.8457 11.3916C49.9434 11.766 49.9922 12.2949 49.9922 12.9785V24.9902C50.0085 27.3503 50.0573 29.5719 50.1387 31.6553H53.0195ZM68.083 14.3701C66.6995 14.3701 65.6416 14.891 64.9092 15.9326C64.193 16.9743 63.835 19.2448 63.835 22.7441C63.835 25.6087 64.1523 27.749 64.7871 29.165C65.4219 30.5648 66.4798 31.2646 67.9609 31.2646C68.8724 31.2646 69.6374 31.0856 70.2559 30.7275C70.8906 30.3532 71.3138 29.873 71.5254 29.2871C71.7533 28.6849 71.8672 27.3503 71.8672 25.2832V15.4199C71.3301 15.127 70.7441 14.8828 70.1094 14.6875C69.4746 14.4759 68.7992 14.3701 68.083 14.3701ZM73.1123 33.1201C71.387 34.0316 69.8815 34.6582 68.5957 35C67.3099 35.3255 66.0241 35.4883 64.7383 35.4883C61.9714 35.4883 59.8392 34.6663 58.3418 33.0225C56.8444 31.3623 56.0957 28.4977 56.0957 24.4287C56.0957 19.5785 57.2269 15.9896 59.4893 13.6621C61.7679 11.3184 64.8604 10.1465 68.7666 10.1465C69.4827 10.1465 70.0524 10.1628 70.4756 10.1953C70.8988 10.2279 71.3626 10.2686 71.8672 10.3174C71.8672 9.68262 71.8346 8.88509 71.7695 7.9248C71.7044 6.96452 71.5824 6.14258 71.4033 5.45898C71.2243 4.75911 70.9069 4.31152 70.4512 4.11621C70.0117 3.90462 69.4339 3.79883 68.7178 3.79883C68.4248 3.13151 68.2783 2.46419 68.2783 1.79688C68.2783 1.11328 68.5306 0.681966 69.0352 0.50293C69.556 0.307617 71.1999 0.209961 73.9668 0.209961C75.6921 0.209961 76.8721 0.283203 77.5068 0.429688C78.1416 0.559896 78.4997 0.812174 78.5811 1.18652C78.6787 1.56087 78.7275 2.08984 78.7275 2.77344V20.083C78.7275 25.7796 78.8822 29.1732 79.1914 30.2637C79.5007 31.3379 80.0133 31.8018 80.7295 31.6553C81.055 32.1273 81.2178 32.5993 81.2178 33.0713C81.2178 33.6735 80.5098 34.2269 79.0938 34.7314C77.694 35.236 76.5791 35.4883 75.749 35.4883C75.2445 35.4883 74.8294 35.3581 74.5039 35.0977C74.1947 34.8372 73.7308 34.1781 73.1123 33.1201ZM96.1836 14.3701C94.9792 14.3701 94.0596 14.8584 93.4248 15.835C92.79 16.8115 92.4645 18.5124 92.4482 20.9375H93.7422C95.5488 20.9375 96.9242 20.8887 97.8682 20.791C98.8285 20.6771 99.39 20.498 99.5527 20.2539C99.7155 19.9935 99.7969 19.5703 99.7969 18.9844C99.7969 17.5195 99.4795 16.3883 98.8447 15.5908C98.21 14.777 97.3229 14.3701 96.1836 14.3701ZM97.1602 10.1465C100.546 10.1465 103.003 10.9196 104.533 12.4658C106.063 13.9958 106.828 16.4209 106.828 19.7412C106.828 21.3851 106.503 22.557 105.852 23.2568C105.201 23.9567 103.776 24.3066 101.579 24.3066H92.4971C92.5459 26.4388 93.026 28.1152 93.9375 29.3359C94.849 30.5404 96.4521 31.1426 98.7471 31.1426C100.993 31.1426 103.304 30.4915 105.681 29.1895C106.527 30.0195 106.95 30.9147 106.95 31.875C106.95 33.1771 105.99 34.0885 104.069 34.6094C102.165 35.1139 99.9271 35.3662 97.3555 35.3662C92.9284 35.3662 89.7139 34.471 87.7119 32.6807C85.71 30.8903 84.709 27.9362 84.709 23.8184C84.709 19.5378 85.832 16.193 88.0781 13.7842C90.3405 11.359 93.3678 10.1465 97.1602 10.1465ZM134.782 20.083C134.782 25.861 134.823 29.7184 134.904 31.6553H137.565C137.858 32.1924 138.005 32.7946 138.005 33.4619C138.005 34.0316 137.883 34.4303 137.639 34.6582C137.411 34.8861 136.955 35 136.271 35H126.14C125.863 34.3164 125.725 33.6735 125.725 33.0713C125.725 32.5667 125.839 32.2087 126.066 31.9971C126.294 31.7692 126.66 31.6553 127.165 31.6553H127.775C127.857 28.807 127.897 25.9912 127.897 23.208C127.897 19.8877 127.588 17.666 126.97 16.543C126.368 15.4036 125.383 14.834 124.016 14.834C123.186 14.834 122.437 15.1758 121.77 15.8594C121.102 16.5267 120.769 17.9346 120.769 20.083V24.9902C120.769 27.041 120.809 29.2627 120.891 31.6553H122.648C122.925 32.1924 123.063 32.7946 123.063 33.4619C123.063 34.0316 122.941 34.4303 122.697 34.6582C122.469 34.8861 122.014 35 121.33 35H110.979C110.686 34.3164 110.539 33.6735 110.539 33.0713C110.539 32.5667 110.653 32.2087 110.881 31.9971C111.109 31.7692 111.475 31.6553 111.979 31.6553H113.762C113.843 28.9697 113.884 26.1947 113.884 23.3301C113.884 18.7728 113.664 16.0791 113.225 15.249C112.801 14.4189 112.053 14.0039 110.979 14.0039C110.686 13.3529 110.539 12.7018 110.539 12.0508C110.539 11.4648 110.751 11.0824 111.174 10.9033C111.613 10.7243 114.307 10.5615 119.255 10.415C119.336 11.0986 119.336 12.0345 119.255 13.2227C121.029 12.1159 122.689 11.3346 124.235 10.8789C125.798 10.4069 127.157 10.1709 128.312 10.1709C129.924 10.1709 131.161 10.4232 132.023 10.9277C132.886 11.416 133.496 12.0671 133.854 12.8809C135.319 11.9857 136.809 11.3102 138.322 10.8545C139.836 10.3988 141.146 10.1709 142.253 10.1709C144.385 10.1709 146.005 10.6755 147.111 11.6846C148.234 12.6937 148.796 14.7282 148.796 17.7881C148.796 25.7959 148.942 30.1172 149.235 30.752C149.528 31.3704 150.163 31.6715 151.14 31.6553C151.384 32.2412 151.506 32.8516 151.506 33.4863C151.506 34.0723 151.311 34.471 150.92 34.6826C150.546 34.8942 149.821 35 148.747 35C146.11 35 144.442 34.9593 143.742 34.8779C143.042 34.7965 142.562 34.5361 142.302 34.0967C142.041 33.641 141.911 32.8841 141.911 31.8262V23.208C141.911 19.8877 141.602 17.666 140.983 16.543C140.381 15.4036 139.396 14.834 138.029 14.834C137.199 14.834 136.451 15.1758 135.783 15.8594C135.116 16.5267 134.782 17.9346 134.782 20.083ZM166.252 14.3701C165.048 14.3701 164.128 14.8584 163.493 15.835C162.858 16.8115 162.533 18.5124 162.517 20.9375H163.811C165.617 20.9375 166.993 20.8887 167.937 20.791C168.897 20.6771 169.458 20.498 169.621 20.2539C169.784 19.9935 169.865 19.5703 169.865 18.9844C169.865 17.5195 169.548 16.3883 168.913 15.5908C168.278 14.777 167.391 14.3701 166.252 14.3701ZM167.229 10.1465C170.614 10.1465 173.072 10.9196 174.602 12.4658C176.132 13.9958 176.896 16.4209 176.896 19.7412C176.896 21.3851 176.571 22.557 175.92 23.2568C175.269 23.9567 173.845 24.3066 171.647 24.3066H162.565C162.614 26.4388 163.094 28.1152 164.006 29.3359C164.917 30.5404 166.521 31.1426 168.815 31.1426C171.062 31.1426 173.373 30.4915 175.749 29.1895C176.595 30.0195 177.019 30.9147 177.019 31.875C177.019 33.1771 176.058 34.0885 174.138 34.6094C172.233 35.1139 169.995 35.3662 167.424 35.3662C162.997 35.3662 159.782 34.471 157.78 32.6807C155.778 30.8903 154.777 27.9362 154.777 23.8184C154.777 19.5378 155.9 16.193 158.146 13.7842C160.409 11.359 163.436 10.1465 167.229 10.1465ZM189.323 13.2227C191.097 12.1159 192.798 11.3346 194.426 10.8789C196.07 10.4069 197.445 10.1709 198.552 10.1709C200.847 10.1709 202.548 10.6755 203.654 11.6846C204.777 12.6937 205.339 14.7282 205.339 17.7881C205.339 25.7959 205.485 30.1172 205.778 30.752C206.071 31.3704 206.706 31.6715 207.683 31.6553C207.927 32.2412 208.049 32.8516 208.049 33.4863C208.049 34.0723 207.854 34.471 207.463 34.6826C207.089 34.8942 206.364 35 205.29 35C202.653 35 200.985 34.9593 200.285 34.8779C199.585 34.7965 199.105 34.5361 198.845 34.0967C198.584 33.641 198.454 32.8841 198.454 31.8262V23.208C198.454 19.8877 198.145 17.666 197.526 16.543C196.924 15.4036 195.939 14.834 194.572 14.834C193.417 14.834 192.505 15.1758 191.838 15.8594C191.171 16.5267 190.837 17.9346 190.837 20.083V24.9902C190.837 27.041 190.878 29.2627 190.959 31.6553H193.864C194.141 32.1924 194.279 32.7946 194.279 33.4619C194.279 34.0316 194.157 34.4303 193.913 34.6582C193.685 34.8861 193.229 35 192.546 35H181.047C180.754 34.3164 180.607 33.6735 180.607 33.0713C180.607 32.5667 180.721 32.2087 180.949 31.9971C181.177 31.7692 181.543 31.6553 182.048 31.6553H183.83C183.911 28.9697 183.952 26.1947 183.952 23.3301C183.952 18.7728 183.732 16.0791 183.293 15.249C182.87 14.4189 182.121 14.0039 181.047 14.0039C180.754 13.3529 180.607 12.7018 180.607 12.0508C180.607 11.4648 180.819 11.0824 181.242 10.9033C181.682 10.7243 184.375 10.5615 189.323 10.415C189.405 11.0986 189.405 12.0345 189.323 13.2227ZM234.294 24.209C234.294 27.4479 234.408 29.458 234.636 30.2393C234.88 31.0042 235.482 31.346 236.442 31.2646C236.67 31.8018 236.784 32.3145 236.784 32.8027C236.784 33.6003 236.19 34.2106 235.002 34.6338C233.814 35.0407 232.723 35.2441 231.73 35.2441C230.965 35.2441 230.428 35.1302 230.119 34.9023C229.81 34.6582 229.33 34.0641 228.679 33.1201C227.165 33.8851 225.708 34.471 224.309 34.8779C222.925 35.2848 221.444 35.4883 219.865 35.4883C217.782 35.4883 216.146 34.943 214.958 33.8525C213.77 32.7458 213.176 30.5078 213.176 27.1387C213.176 22.1094 213.143 19.0088 213.078 17.8369C213.029 16.6488 212.907 15.7861 212.712 15.249C212.517 14.6956 212.256 14.3538 211.931 14.2236C211.605 14.0771 211.133 14.0039 210.515 14.0039C210.222 13.5482 210.075 13.0192 210.075 12.417C210.075 11.6683 210.531 11.1475 211.442 10.8545C212.354 10.5615 213.794 10.415 215.764 10.415C217.18 10.415 218.181 10.5046 218.767 10.6836C219.353 10.8464 219.711 11.0986 219.841 11.4404C219.987 11.7822 220.061 12.9297 220.061 14.8828V23.5742C220.061 26.748 220.362 28.8232 220.964 29.7998C221.566 30.7764 222.421 31.2646 223.527 31.2646C224.357 31.2646 225.122 31.0856 225.822 30.7275C226.522 30.3532 226.962 29.873 227.141 29.2871C227.32 28.6849 227.409 27.6107 227.409 26.0645C227.409 21.7513 227.401 19.0088 227.385 17.8369C227.368 16.665 227.279 15.8024 227.116 15.249C226.953 14.6956 226.742 14.3538 226.481 14.2236C226.237 14.0771 225.806 14.0039 225.188 14.0039C224.895 13.5482 224.748 13.0192 224.748 12.417C224.748 11.6683 225.204 11.1475 226.115 10.8545C227.043 10.5615 228.337 10.415 229.997 10.415C231.413 10.415 232.414 10.5046 233 10.6836C233.586 10.8464 233.944 11.1393 234.074 11.5625C234.221 11.9694 234.294 13.1576 234.294 15.127V24.209Z" fill="#EC7574"/>
<path d="M254.948 19.4727C255.241 20.1888 255.388 21.1247 255.388 22.2803C255.388 23.0778 255.241 23.6475 254.948 23.9893C254.672 24.3148 254.183 24.4775 253.483 24.4775H241.008C240.715 23.5986 240.568 22.6546 240.568 21.6455C240.568 20.7666 240.715 20.1888 241.008 19.9121C241.301 19.6191 241.7 19.4727 242.204 19.4727H254.948ZM259.025 12.0508C259.025 11.4648 259.237 11.0824 259.66 10.9033C260.1 10.7243 262.793 10.5615 267.741 10.415C267.823 11.0986 267.823 12.0426 267.741 13.2471C269.792 12.0426 271.647 11.2288 273.308 10.8057C274.968 10.3825 276.433 10.1709 277.702 10.1709C278.288 10.1709 278.679 10.2441 278.874 10.3906C279.069 10.5208 279.167 10.8382 279.167 11.3428C279.167 12.238 279.029 13.1738 278.752 14.1504C278.492 15.1107 278.158 15.7292 277.751 16.0059C277.36 16.2826 276.734 16.486 275.871 16.6162C275.008 16.7464 274.504 16.779 274.357 16.7139C274.227 16.6488 273.771 16.1035 272.99 15.0781C271.786 15.0781 270.858 15.5176 270.207 16.3965C269.572 17.2591 269.255 19.4971 269.255 23.1104C269.255 26.4144 269.296 29.2627 269.377 31.6553H273.21C273.503 32.1924 273.649 32.7946 273.649 33.4619C273.649 34.0316 273.527 34.4303 273.283 34.6582C273.055 34.8861 272.6 35 271.916 35H259.465C259.172 34.3164 259.025 33.6735 259.025 33.0713C259.025 32.5667 259.139 32.2087 259.367 31.9971C259.595 31.7692 259.961 31.6553 260.466 31.6553H262.248C262.329 29.2627 262.37 26.4876 262.37 23.3301C262.37 18.7728 262.15 16.0791 261.711 15.249C261.288 14.4189 260.539 14.0039 259.465 14.0039C259.172 13.3529 259.025 12.7018 259.025 12.0508ZM293.254 14.3701C292.049 14.3701 291.13 14.8584 290.495 15.835C289.86 16.8115 289.535 18.5124 289.519 20.9375H290.812C292.619 20.9375 293.994 20.8887 294.938 20.791C295.899 20.6771 296.46 20.498 296.623 20.2539C296.786 19.9935 296.867 19.5703 296.867 18.9844C296.867 17.5195 296.55 16.3883 295.915 15.5908C295.28 14.777 294.393 14.3701 293.254 14.3701ZM294.23 10.1465C297.616 10.1465 300.074 10.9196 301.604 12.4658C303.133 13.9958 303.898 16.4209 303.898 19.7412C303.898 21.3851 303.573 22.557 302.922 23.2568C302.271 23.9567 300.847 24.3066 298.649 24.3066H289.567C289.616 26.4388 290.096 28.1152 291.008 29.3359C291.919 30.5404 293.522 31.1426 295.817 31.1426C298.063 31.1426 300.375 30.4915 302.751 29.1895C303.597 30.0195 304.021 30.9147 304.021 31.875C304.021 33.1771 303.06 34.0885 301.14 34.6094C299.235 35.1139 296.997 35.3662 294.426 35.3662C289.999 35.3662 286.784 34.471 284.782 32.6807C282.78 30.8903 281.779 27.9362 281.779 23.8184C281.779 19.5378 282.902 16.193 285.148 13.7842C287.411 11.359 290.438 10.1465 294.23 10.1465ZM323.088 33.1201C321.867 33.7386 320.476 34.292 318.913 34.7803C317.351 35.2523 315.878 35.4883 314.494 35.4883C312.134 35.4883 310.401 34.943 309.294 33.8525C308.203 32.762 307.658 31.2321 307.658 29.2627C307.658 26.512 308.602 24.4694 310.49 23.1348C312.378 21.8001 315.357 21.1328 319.426 21.1328H322.087C321.94 18.6263 321.525 16.9173 320.842 16.0059C320.158 15.0781 319.133 14.6143 317.766 14.6143C317.017 14.6143 316.203 14.7119 315.324 14.9072C314.755 15.9814 314.413 16.5511 314.299 16.6162C314.201 16.6813 313.64 16.8278 312.614 17.0557C311.605 17.2835 310.889 17.2103 310.466 16.8359C310.043 16.4616 309.611 15.8024 309.172 14.8584C308.749 13.9144 308.537 13.1169 308.537 12.4658C308.537 12.0589 308.7 11.7415 309.025 11.5137C309.367 11.2858 310.604 11.0417 312.736 10.7812C314.868 10.5208 317.139 10.3906 319.548 10.3906C322.412 10.3906 324.659 10.887 326.286 11.8799C327.914 12.8564 328.728 14.7607 328.728 17.5928V24.0625C328.728 27.6595 328.882 29.873 329.191 30.7031C329.501 31.5169 330.054 31.8343 330.852 31.6553C331.096 32.111 331.218 32.5586 331.218 32.998C331.218 33.7305 330.778 34.292 329.899 34.6826C329.037 35.057 327.865 35.2441 326.384 35.2441C325.733 35.2441 325.22 35.1628 324.846 35C324.471 34.8372 323.885 34.2106 323.088 33.1201ZM322.087 25.0146C320.915 24.7705 319.727 24.6484 318.522 24.6484C317.155 24.6484 316.179 24.8763 315.593 25.332C315.007 25.7878 314.714 26.6504 314.714 27.9199C314.714 29.0267 314.999 29.8649 315.568 30.4346C316.154 30.988 317.001 31.2646 318.107 31.2646C318.986 31.2646 319.759 31.0775 320.427 30.7031C321.11 30.3288 321.558 29.7998 321.77 29.1162C321.981 28.4163 322.087 27.513 322.087 26.4062V25.0146ZM346.794 35.4883C342.285 35.4883 339.136 34.6582 337.346 32.998C335.555 31.3216 334.66 28.457 334.66 24.4043C334.66 19.847 335.824 16.3314 338.151 13.8574C340.495 11.3835 343.986 10.1465 348.625 10.1465C351.066 10.1465 352.751 10.3581 353.679 10.7812C354.623 11.2044 355.111 11.9124 355.144 12.9053C355.144 14.1748 354.745 15.3304 353.947 16.3721C351.245 15.0374 349.048 14.3701 347.355 14.3701C345.663 14.3701 344.41 14.9723 343.596 16.1768C342.798 17.3649 342.399 19.4645 342.399 22.4756C342.399 25.4541 342.79 27.6676 343.571 29.1162C344.369 30.5485 345.809 31.2646 347.893 31.2646C349.585 31.2646 351.758 30.638 354.411 29.3848C355.095 30.3288 355.437 31.3216 355.437 32.3633C355.437 33.4212 354.574 34.2106 352.849 34.7314C351.123 35.236 349.105 35.4883 346.794 35.4883ZM361.32 10.8545L363.737 3.50586C364.567 3.75 365.332 4.06738 366.032 4.45801C366.748 4.84863 367.285 5.29622 367.644 5.80078C368.018 6.30534 368.205 7.55046 368.205 9.53613V10.8545H376.457C376.734 11.5055 376.872 12.1973 376.872 12.9297C376.872 13.5482 376.758 13.9632 376.53 14.1748C376.302 14.3864 375.863 14.4922 375.212 14.4922H368.205V24.1357C368.205 26.9352 368.441 28.8395 368.913 29.8486C369.385 30.8577 370.166 31.3867 371.257 31.4355C372.364 31.4681 373.706 31.0775 375.285 30.2637C375.757 30.8984 375.993 31.6227 375.993 32.4365C375.993 33.5433 375.407 34.292 374.235 34.6826C373.08 35.057 371.273 35.2441 368.815 35.2441C366.13 35.2441 364.209 34.707 363.054 33.6328C361.914 32.5586 361.345 30.4753 361.345 27.3828V23.1348C361.345 20.4492 361.263 17.5684 361.101 14.4922H358.61C358.317 13.7923 358.171 13.0843 358.171 12.3682C358.171 11.8148 358.277 11.4242 358.488 11.1963C358.716 10.9684 359.09 10.8545 359.611 10.8545H361.32ZM389.641 14.6875C389.641 20.498 389.657 24.7624 389.689 27.4805C389.722 30.1823 389.738 32.9167 389.738 35.6836C389.738 37.9948 389.413 39.834 388.762 41.2012C388.111 42.5684 387.069 43.667 385.637 44.4971C384.221 45.3271 382.202 45.7422 379.582 45.7422C377.84 45.7422 376.636 45.6201 375.969 45.376C375.285 45.1318 374.943 44.5052 374.943 43.4961C374.943 42.4219 375.301 41.4128 376.018 40.4688C378.736 41.2826 380.534 41.5267 381.413 41.2012C382.308 40.8757 382.756 38.8086 382.756 35V24.9902C382.756 21.3932 382.723 19.0088 382.658 17.8369C382.609 16.665 382.487 15.8024 382.292 15.249C382.097 14.6956 381.779 14.3538 381.34 14.2236C380.9 14.0771 380.323 14.0039 379.606 14.0039C379.33 13.5482 379.191 13.0192 379.191 12.417C379.191 11.6683 379.476 11.1475 380.046 10.8545C380.616 10.5615 382.382 10.415 385.344 10.415C387.004 10.415 388.094 10.4964 388.615 10.6592C389.136 10.8219 389.437 11.1312 389.519 11.5869C389.6 12.0264 389.641 13.0599 389.641 14.6875ZM384.88 7.24121C383.415 7.24121 382.357 6.96452 381.706 6.41113C381.055 5.84147 380.729 5.04395 380.729 4.01855C380.746 2.94434 381.161 2.06543 381.975 1.38184C382.805 0.681966 383.985 0.332031 385.515 0.332031C387.077 0.332031 388.184 0.633138 388.835 1.23535C389.486 1.82129 389.812 2.5944 389.812 3.55469C389.812 4.61263 389.421 5.49154 388.64 6.19141C387.858 6.89128 386.605 7.24121 384.88 7.24121ZM407.341 10.1465C409.799 10.1465 411.695 10.3825 413.029 10.8545C414.364 11.3102 415.031 12.0833 415.031 13.1738C415.031 14.3294 414.567 15.5013 413.64 16.6895C410.124 15.1432 407.43 14.3701 405.559 14.3701C404.566 14.3701 403.825 14.5573 403.337 14.9316C402.865 15.306 402.629 15.8431 402.629 16.543C402.629 17.2754 402.946 17.9102 403.581 18.4473C404.232 18.9844 405.721 19.668 408.049 20.498C410.767 21.4258 412.696 22.443 413.835 23.5498C414.991 24.6566 415.568 26.1133 415.568 27.9199C415.568 30.3613 414.567 32.2331 412.565 33.5352C410.58 34.8372 407.886 35.4883 404.484 35.4883C401.343 35.4883 399.105 35.2767 397.771 34.8535C396.436 34.4141 395.76 33.5189 395.744 32.168C395.744 31.1589 396.143 30.166 396.94 29.1895C400.179 30.5729 403.052 31.2646 405.559 31.2646C406.584 31.2646 407.382 31.0938 407.951 30.752C408.521 30.4102 408.806 29.8405 408.806 29.043C408.806 28.1152 408.301 27.3747 407.292 26.8213C406.299 26.2679 404.696 25.568 402.482 24.7217C400.106 23.8102 398.405 22.8337 397.38 21.792C396.371 20.734 395.866 19.3831 395.866 17.7393C395.866 15.4281 396.875 13.5889 398.894 12.2217C400.928 10.8382 403.744 10.1465 407.341 10.1465Z" fill="#61DAFB"/>
</g>
</svg>
